<?xml version="1.0" encoding="UTF-8"?>
<svg id="Calque_2" data-name="Calque 2" xmlns="http://www.w3.org/2000/svg" viewBox="0 0 426.11 27.83">
  <defs>
    <style>
      .cls-1 {
        fill: #f6f6f6;
      }
    </style>
  </defs>
  <g id="Calque_1-2" data-name="Calque 1">
    <g>
      <path class="cls-1" d="M3.12,16.37c.81,1.67,2.38,2.86,4.69,2.86,1.97,0,3.5-.94,3.5-2.43s-1.35-2.05-3.86-2.86c-3.23-1.04-5.78-2.12-5.75-5.12.02-3.11,2.96-4.74,5.79-4.74,3.14,0,5.15,1.69,6.1,3.51l-2.04,1.43c-.73-1.32-2.1-2.54-4.06-2.54-1.62,0-3.14.83-3.14,2.33s1.39,1.9,3.8,2.72c3.17,1.08,5.81,1.95,5.81,5.25s-3.17,4.82-6.09,4.82c-3.33,0-5.72-1.7-6.7-3.86l1.97-1.37Z"/>
      <path class="cls-1" d="M15.41,11.42v-2.1h2.18v-3.86h2.42v3.86h3.82v2.1h-3.8v6.01c0,1.28.74,1.92,1.97,1.92.58,0,1.37-.16,1.95-.41l.33,2.13c-.6.31-1.67.53-2.63.53-2.52,0-4.1-1.42-4.1-3.86v-6.31h-2.14Z"/>
      <path class="cls-1" d="M31.14,14.11c1.44,0,2.48.3,3.03.56v-.65c0-1.5-1.22-2.63-3.08-2.63-1.49,0-2.73.85-3.44,1.67l-1.57-1.55c.93-1.18,2.86-2.44,5.05-2.44,3.38,0,5.52,1.83,5.52,4.75v7.53h-2.43v-1.55c-.74,1.13-2.13,1.8-3.75,1.8-2.61,0-4.65-1.32-4.65-3.67s2.15-3.81,5.31-3.81ZM30.84,19.56c1.95,0,3.33-1.34,3.33-2.98-.51-.26-1.67-.58-2.97-.58-1.57,0-2.87.53-2.87,1.83,0,1.09,1.09,1.73,2.51,1.73Z"/>
      <path class="cls-1" d="M38.42,9.32h2.73l3.75,9.47,3.72-9.47h2.73l-5.76,13.55c-.96,2.23-2,3.73-4.94,3.73-1.06,0-1.78-.33-1.99-.44l.26-2.05c.34.15.99.31,1.62.31,1.62,0,2.27-.81,2.81-2.22l.26-.69-5.19-12.2Z"/>
      <path class="cls-1" d="M58.05,15.32c0-3.52,2.84-6.25,6.48-6.25,2.37,0,4.35,1.24,5.47,3.29l-1.92,1.3c-.75-1.39-2.1-2.27-3.61-2.27-2.32,0-3.92,1.72-3.92,3.92s1.64,3.95,3.87,3.95c1.57,0,2.87-.83,3.7-2.26l1.87,1.32c-1.1,1.98-3.13,3.27-5.56,3.27-3.65,0-6.38-2.77-6.38-6.28Z"/>
      <path class="cls-1" d="M75,9.32v6.78c0,1.99,1.09,3.14,2.93,3.14s3.38-1.15,3.38-3.14v-6.78h2.48v12.03h-2.49v-1.52c-.4.61-1.54,1.77-3.76,1.77-3.28,0-5.02-2.05-5.02-4.97v-7.3h2.48Z"/>
      <path class="cls-1" d="M87.61,21.34v-12.03h2.49v1.64c.68-1.31,1.82-1.89,3.13-1.89.94,0,1.65.3,1.65.3l-.26,2.28c-.14-.05-.68-.28-1.47-.28-1.33,0-3.06.7-3.06,3.42v6.55h-2.49Z"/>
      <path class="cls-1" d="M97.25,21.34v-12.03h2.49v1.64c.68-1.31,1.82-1.89,3.13-1.89.94,0,1.65.3,1.65.3l-.26,2.28c-.14-.05-.68-.28-1.47-.28-1.33,0-3.06.7-3.06,3.42v6.55h-2.49Z"/>
      <path class="cls-1" d="M111.74,9.06c3.51,0,5.79,2.61,5.79,5.83,0,.38-.03.76-.1,1.15h-9.33c.11,1.8,1.65,3.22,3.73,3.22,1.5,0,2.71-.64,3.61-2.05l1.83,1.33c-1.12,2-3.31,3.06-5.44,3.06-3.63,0-6.3-2.68-6.3-6.25s2.57-6.28,6.21-6.28ZM115.01,14.19c-.15-1.69-1.57-2.88-3.29-2.88-1.84,0-3.24,1.19-3.56,2.88h6.85Z"/>
      <path class="cls-1" d="M120.48,21.34v-12.03h2.49v1.52c.4-.61,1.54-1.77,3.7-1.77,3.31,0,5.05,2.05,5.05,4.97v7.3h-2.48v-6.78c0-1.99-1.09-3.14-2.96-3.14s-3.32,1.15-3.32,3.14v6.78h-2.48Z"/>
      <path class="cls-1" d="M133.8,11.42v-2.1h2.18v-3.86h2.42v3.86h3.82v2.1h-3.8v6.01c0,1.28.74,1.92,1.97,1.92.58,0,1.37-.16,1.95-.41l.33,2.13c-.6.31-1.67.53-2.63.53-2.52,0-4.1-1.42-4.1-3.86v-6.31h-2.14Z"/>
      <path class="cls-1" d="M149.49,9.32h2.62l2.64,9.6,2.81-9.47h2.63l2.81,9.47,2.64-9.6h2.62l-3.55,12.03h-3.38l-2.46-8.56-2.46,8.56h-3.38l-3.54-12.03Z"/>
      <path class="cls-1" d="M171.9,3.75c.9,0,1.54.63,1.54,1.53s-.64,1.53-1.54,1.53-1.53-.63-1.53-1.53.63-1.53,1.53-1.53ZM170.66,21.34v-12.03h2.48v12.03h-2.48Z"/>
      <path class="cls-1" d="M175.53,11.42v-2.1h2.18v-3.86h2.42v3.86h3.82v2.1h-3.8v6.01c0,1.28.74,1.92,1.97,1.92.58,0,1.37-.16,1.95-.41l.33,2.13c-.6.31-1.67.53-2.63.53-2.52,0-4.1-1.42-4.1-3.86v-6.31h-2.14Z"/>
      <path class="cls-1" d="M186.75,21.34V3.7h2.49v7.13c.4-.61,1.54-1.77,3.7-1.77,3.24,0,4.99,2.05,4.99,4.97v7.3h-2.48v-6.78c0-1.99-1.09-3.14-2.89-3.14s-3.32,1.15-3.32,3.14v6.78h-2.48Z"/>
      <path class="cls-1" d="M207.46,21.34v-12.03h2.49v1.64c.68-1.31,1.82-1.89,3.13-1.89.94,0,1.65.3,1.65.3l-.26,2.28c-.14-.05-.68-.28-1.47-.28-1.33,0-3.06.7-3.06,3.42v6.55h-2.49Z"/>
      <path class="cls-1" d="M221.96,9.06c3.51,0,5.79,2.61,5.79,5.83,0,.38-.03.76-.1,1.15h-9.33c.11,1.8,1.65,3.22,3.73,3.22,1.5,0,2.71-.64,3.61-2.05l1.83,1.33c-1.12,2-3.31,3.06-5.44,3.06-3.63,0-6.3-2.68-6.3-6.25s2.57-6.28,6.21-6.28ZM225.23,14.19c-.15-1.69-1.57-2.88-3.29-2.88-1.84,0-3.24,1.19-3.56,2.88h6.85Z"/>
      <path class="cls-1" d="M235.21,14.11c1.44,0,2.48.3,3.03.56v-.65c0-1.5-1.22-2.63-3.08-2.63-1.49,0-2.73.85-3.44,1.67l-1.57-1.55c.93-1.18,2.86-2.44,5.05-2.44,3.38,0,5.52,1.83,5.52,4.75v7.53h-2.43v-1.55c-.74,1.13-2.13,1.8-3.75,1.8-2.61,0-4.65-1.32-4.65-3.67s2.15-3.81,5.31-3.81ZM234.91,19.56c1.95,0,3.33-1.34,3.33-2.98-.51-.26-1.67-.58-2.97-.58-1.57,0-2.87.53-2.87,1.83,0,1.09,1.09,1.73,2.51,1.73Z"/>
      <path class="cls-1" d="M246.85,21.34h-2.48V3.7h2.48v17.64Z"/>
      <path class="cls-1" d="M258.55,15.29h-8.22v-2.3h8.22v2.3Z"/>
      <path class="cls-1" d="M260.21,11.42v-2.1h2.18v-3.86h2.42v3.86h3.82v2.1h-3.8v6.01c0,1.28.74,1.92,1.97,1.92.58,0,1.37-.16,1.95-.41l.33,2.13c-.6.31-1.67.53-2.63.53-2.52,0-4.1-1.42-4.1-3.86v-6.31h-2.14Z"/>
      <path class="cls-1" d="M272.67,3.75c.9,0,1.54.63,1.54,1.53s-.64,1.53-1.54,1.53-1.53-.63-1.53-1.53.63-1.53,1.53-1.53ZM271.43,21.34v-12.03h2.48v12.03h-2.48Z"/>
      <path class="cls-1" d="M277.72,9.32h2.49v1.52c.39-.61,1.53-1.77,3.65-1.77s3.52.85,4.28,2.24c.73-1.18,2.23-2.24,4.3-2.24,3.21,0,4.94,2.05,4.94,4.97v7.3h-2.49v-6.78c0-1.99-1.06-3.14-2.83-3.14s-3.19,1.1-3.26,2.99v6.93h-2.49v-6.78c0-1.99-1.06-3.14-2.83-3.14s-3.26,1.15-3.26,3.14v6.78h-2.49v-12.03Z"/>
      <path class="cls-1" d="M306.36,9.06c3.51,0,5.79,2.61,5.79,5.83,0,.38-.02.76-.1,1.15h-9.33c.11,1.8,1.65,3.22,3.73,3.22,1.5,0,2.71-.64,3.61-2.05l1.83,1.33c-1.12,2-3.31,3.06-5.44,3.06-3.63,0-6.3-2.68-6.3-6.25s2.57-6.28,6.21-6.28ZM309.63,14.19c-.15-1.69-1.57-2.88-3.29-2.88-1.84,0-3.24,1.19-3.56,2.88h6.85Z"/>
      <path class="cls-1" d="M320.1,15.32c0-3.52,2.84-6.25,6.48-6.25,2.37,0,4.35,1.24,5.47,3.29l-1.92,1.3c-.75-1.39-2.1-2.27-3.61-2.27-2.32,0-3.92,1.72-3.92,3.92s1.64,3.95,3.87,3.95c1.57,0,2.87-.83,3.7-2.26l1.87,1.32c-1.1,1.98-3.13,3.27-5.56,3.27-3.65,0-6.38-2.77-6.38-6.28Z"/>
      <path class="cls-1" d="M337.05,9.32v6.78c0,1.99,1.09,3.14,2.93,3.14s3.38-1.15,3.38-3.14v-6.78h2.48v12.03h-2.49v-1.52c-.4.61-1.54,1.77-3.76,1.77-3.28,0-5.02-2.05-5.02-4.97v-7.3h2.48Z"/>
      <path class="cls-1" d="M349.66,21.34v-12.03h2.49v1.64c.68-1.31,1.82-1.89,3.13-1.89.94,0,1.65.3,1.65.3l-.26,2.28c-.14-.05-.68-.28-1.47-.28-1.33,0-3.06.7-3.06,3.42v6.55h-2.49Z"/>
      <path class="cls-1" d="M359.3,21.34v-12.03h2.49v1.64c.68-1.31,1.82-1.89,3.13-1.89.94,0,1.65.3,1.65.3l-.26,2.28c-.14-.05-.68-.28-1.47-.28-1.33,0-3.06.7-3.06,3.42v6.55h-2.49Z"/>
      <path class="cls-1" d="M373.79,9.06c3.51,0,5.79,2.61,5.79,5.83,0,.38-.03.76-.1,1.15h-9.33c.11,1.8,1.65,3.22,3.73,3.22,1.5,0,2.71-.64,3.61-2.05l1.83,1.33c-1.12,2-3.31,3.06-5.44,3.06-3.63,0-6.3-2.68-6.3-6.25s2.57-6.28,6.21-6.28ZM377.06,14.19c-.15-1.69-1.57-2.88-3.29-2.88-1.84,0-3.24,1.19-3.56,2.88h6.85Z"/>
      <path class="cls-1" d="M382.53,21.34v-12.03h2.49v1.52c.4-.61,1.54-1.77,3.7-1.77,3.31,0,5.05,2.05,5.05,4.97v7.3h-2.48v-6.78c0-1.99-1.09-3.14-2.96-3.14s-3.32,1.15-3.32,3.14v6.78h-2.48Z"/>
      <path class="cls-1" d="M396.53,15.32c0-3.52,2.84-6.25,6.48-6.25,2.37,0,4.35,1.24,5.47,3.29l-1.92,1.3c-.75-1.39-2.1-2.27-3.61-2.27-2.32,0-3.92,1.72-3.92,3.92s1.64,3.95,3.87,3.95c1.57,0,2.87-.83,3.7-2.26l1.87,1.32c-1.1,1.98-3.13,3.27-5.56,3.27-3.65,0-6.38-2.77-6.38-6.28Z"/>
      <path class="cls-1" d="M409.39,9.32h2.73l3.75,9.47,3.72-9.47h2.73l-5.76,13.55c-.96,2.23-2,3.73-4.94,3.73-1.06,0-1.78-.33-1.99-.44l.26-2.05c.34.15.99.31,1.62.31,1.62,0,2.27-.81,2.81-2.22l.26-.69-5.19-12.2Z"/>
      <path class="cls-1" d="M424.05,18.52c.88,0,1.54.69,1.54,1.54s-.66,1.53-1.54,1.53-1.53-.68-1.53-1.53.65-1.54,1.53-1.54Z"/>
    </g>
  </g>
</svg>